<mxfile host="app.diagrams.net" modified="2022-06-21T02:03:23.087Z" agent="5.0 (Windows NT 10.0; Win64; x64) AppleWebKit/537.36 (KHTML, like Gecko) Chrome/102.0.0.0 Safari/537.36" etag="nmpOkzlfine7EK7ayvok" version="20.0.1" type="github">
  <diagram id="kgpKYQtTHZ0yAKxKKP6v" name="Page-1">
    <mxGraphModel dx="978" dy="545" grid="1" gridSize="10" guides="1" tooltips="1" connect="1" arrows="1" fold="1" page="1" pageScale="1" pageWidth="850" pageHeight="1100" background="#DAD2D8" math="0" shadow="0">
      <root>
        <mxCell id="0" />
        <mxCell id="1" parent="0" />
        <mxCell id="_muVhDr60phgIgJsRJF9-12" value="Sistema para Prestação de Serviço para PETS" style="shape=umlFrame;whiteSpace=wrap;html=1;sketch=0;width=280;height=30;fillColor=#FAE5C7;strokeColor=#0F8B8D;fontColor=#143642;" parent="1" vertex="1">
          <mxGeometry x="40" y="40" width="870" height="410" as="geometry" />
        </mxCell>
        <mxCell id="_muVhDr60phgIgJsRJF9-1" value="" style="shape=umlLifeline;participant=umlActor;perimeter=lifelinePerimeter;whiteSpace=wrap;html=1;container=1;collapsible=0;recursiveResize=0;verticalAlign=top;spacingTop=36;outlineConnect=0;rounded=0;sketch=0;fillColor=#FAE5C7;strokeColor=#0F8B8D;fontColor=#143642;" parent="1" vertex="1">
          <mxGeometry x="60" y="100" width="20" height="340" as="geometry" />
        </mxCell>
        <mxCell id="_muVhDr60phgIgJsRJF9-8" value="" style="html=1;points=[];perimeter=orthogonalPerimeter;sketch=0;fillColor=#FAE5C7;strokeColor=#0F8B8D;fontColor=#143642;" parent="_muVhDr60phgIgJsRJF9-1" vertex="1">
          <mxGeometry x="10" y="100" width="10" height="30" as="geometry" />
        </mxCell>
        <mxCell id="_muVhDr60phgIgJsRJF9-2" value=":formularioRegistroOS" style="shape=umlLifeline;perimeter=lifelinePerimeter;whiteSpace=wrap;html=1;container=1;collapsible=0;recursiveResize=0;outlineConnect=0;rounded=0;sketch=0;fillColor=#FAE5C7;strokeColor=#0F8B8D;fontColor=#143642;" parent="1" vertex="1">
          <mxGeometry x="130" y="100" width="130" height="340" as="geometry" />
        </mxCell>
        <mxCell id="_muVhDr60phgIgJsRJF9-10" value="" style="html=1;points=[];perimeter=orthogonalPerimeter;sketch=0;fillColor=#FAE5C7;strokeColor=#0F8B8D;fontColor=#143642;" parent="_muVhDr60phgIgJsRJF9-2" vertex="1">
          <mxGeometry x="65" y="100" width="10" height="80" as="geometry" />
        </mxCell>
        <mxCell id="hoexG68zyw0x6wc4uR14-14" value="" style="html=1;points=[];perimeter=orthogonalPerimeter;fillColor=#FAE5C7;strokeColor=#0F8B8D;fontColor=#143642;" vertex="1" parent="_muVhDr60phgIgJsRJF9-2">
          <mxGeometry x="65" y="260" width="10" height="40" as="geometry" />
        </mxCell>
        <mxCell id="6cp8o_F83PpAeZEBxeit-1" value=":controleRegistroOS" style="shape=umlLifeline;perimeter=lifelinePerimeter;whiteSpace=wrap;html=1;container=1;collapsible=0;recursiveResize=0;outlineConnect=0;fillColor=#FAE5C7;strokeColor=#0F8B8D;fontColor=#143642;" parent="1" vertex="1">
          <mxGeometry x="300" y="100" width="120" height="340" as="geometry" />
        </mxCell>
        <mxCell id="6cp8o_F83PpAeZEBxeit-9" value="" style="html=1;points=[];perimeter=orthogonalPerimeter;fillColor=#FAE5C7;strokeColor=#0F8B8D;fontColor=#143642;" parent="6cp8o_F83PpAeZEBxeit-1" vertex="1">
          <mxGeometry x="60" y="100" width="10" height="30" as="geometry" />
        </mxCell>
        <mxCell id="hoexG68zyw0x6wc4uR14-15" value="" style="html=1;points=[];perimeter=orthogonalPerimeter;fillColor=#FAE5C7;strokeColor=#0F8B8D;fontColor=#143642;" vertex="1" parent="6cp8o_F83PpAeZEBxeit-1">
          <mxGeometry x="60" y="260" width="10" height="40" as="geometry" />
        </mxCell>
        <mxCell id="6cp8o_F83PpAeZEBxeit-2" value=":Cliente" style="shape=umlLifeline;perimeter=lifelinePerimeter;whiteSpace=wrap;html=1;container=1;collapsible=0;recursiveResize=0;outlineConnect=0;fillColor=#FAE5C7;strokeColor=#0F8B8D;fontColor=#143642;" parent="1" vertex="1">
          <mxGeometry x="480" y="100" width="100" height="340" as="geometry" />
        </mxCell>
        <mxCell id="6cp8o_F83PpAeZEBxeit-3" value=":DAO" style="shape=umlLifeline;perimeter=lifelinePerimeter;whiteSpace=wrap;html=1;container=1;collapsible=0;recursiveResize=0;outlineConnect=0;fillColor=#FAE5C7;strokeColor=#0F8B8D;fontColor=#143642;" parent="1" vertex="1">
          <mxGeometry x="790" y="100" width="100" height="340" as="geometry" />
        </mxCell>
        <mxCell id="6cp8o_F83PpAeZEBxeit-20" value="" style="html=1;points=[];perimeter=orthogonalPerimeter;fillColor=#FAE5C7;strokeColor=#0F8B8D;fontColor=#143642;" parent="6cp8o_F83PpAeZEBxeit-3" vertex="1">
          <mxGeometry x="50" y="100" width="10" height="110" as="geometry" />
        </mxCell>
        <mxCell id="6cp8o_F83PpAeZEBxeit-10" value="RegistrarOS()" style="html=1;verticalAlign=bottom;endArrow=block;rounded=0;exitX=0.9;exitY=0.014;exitDx=0;exitDy=0;exitPerimeter=0;entryX=0.6;entryY=0.014;entryDx=0;entryDy=0;entryPerimeter=0;labelBackgroundColor=#DAD2D8;strokeColor=#A8201A;fontColor=#143642;" parent="1" source="_muVhDr60phgIgJsRJF9-10" target="6cp8o_F83PpAeZEBxeit-9" edge="1">
          <mxGeometry x="-0.16" y="1" width="80" relative="1" as="geometry">
            <mxPoint x="510" y="250" as="sourcePoint" />
            <mxPoint x="590" y="250" as="targetPoint" />
            <Array as="points" />
            <mxPoint as="offset" />
          </mxGeometry>
        </mxCell>
        <mxCell id="6cp8o_F83PpAeZEBxeit-12" value="ConsultaCliente(nome, animal...)" style="html=1;verticalAlign=bottom;endArrow=block;rounded=0;exitX=1;exitY=0;exitDx=0;exitDy=0;exitPerimeter=0;entryX=0;entryY=0;entryDx=0;entryDy=0;entryPerimeter=0;labelBackgroundColor=#DAD2D8;strokeColor=#A8201A;fontColor=#143642;" parent="1" source="6cp8o_F83PpAeZEBxeit-9" target="6cp8o_F83PpAeZEBxeit-20" edge="1">
          <mxGeometry x="-0.4333" width="80" relative="1" as="geometry">
            <mxPoint x="510" y="250" as="sourcePoint" />
            <mxPoint x="590" y="250" as="targetPoint" />
            <mxPoint as="offset" />
          </mxGeometry>
        </mxCell>
        <mxCell id="6cp8o_F83PpAeZEBxeit-16" value="DadosOS()" style="html=1;verticalAlign=bottom;endArrow=block;rounded=0;exitX=1.022;exitY=0.003;exitDx=0;exitDy=0;exitPerimeter=0;entryX=-0.011;entryY=0.003;entryDx=0;entryDy=0;entryPerimeter=0;labelBackgroundColor=#DAD2D8;strokeColor=#A8201A;fontColor=#143642;" parent="1" source="_muVhDr60phgIgJsRJF9-8" target="_muVhDr60phgIgJsRJF9-10" edge="1">
          <mxGeometry width="80" relative="1" as="geometry">
            <mxPoint x="170" y="180" as="sourcePoint" />
            <mxPoint x="250" y="180" as="targetPoint" />
          </mxGeometry>
        </mxCell>
        <mxCell id="6cp8o_F83PpAeZEBxeit-21" value="retorna Cliente e Animais cadastrados" style="html=1;verticalAlign=bottom;endArrow=open;dashed=1;endSize=8;rounded=0;entryX=0.9;entryY=0.525;entryDx=0;entryDy=0;entryPerimeter=0;exitX=-0.406;exitY=0.375;exitDx=0;exitDy=0;exitPerimeter=0;labelBackgroundColor=#DAD2D8;strokeColor=#A8201A;fontColor=#143642;" parent="1" source="6cp8o_F83PpAeZEBxeit-20" target="_muVhDr60phgIgJsRJF9-10" edge="1">
          <mxGeometry x="0.0037" relative="1" as="geometry">
            <mxPoint x="970" y="234" as="sourcePoint" />
            <mxPoint x="230" y="243" as="targetPoint" />
            <mxPoint as="offset" />
            <Array as="points" />
          </mxGeometry>
        </mxCell>
        <mxCell id="6cp8o_F83PpAeZEBxeit-15" value="Atendente" style="text;align=center;fontStyle=1;verticalAlign=middle;spacingLeft=3;spacingRight=3;strokeColor=none;rotatable=0;points=[[0,0.5],[1,0.5]];portConstraint=eastwest;fontColor=#143642;" parent="1" vertex="1">
          <mxGeometry x="40" y="74" width="80" height="26" as="geometry" />
        </mxCell>
        <mxCell id="6cp8o_F83PpAeZEBxeit-30" value="Incluir Ordem de Serviço" style="shape=umlFrame;whiteSpace=wrap;html=1;width=159;height=22;fillColor=#FAE5C7;strokeColor=#0F8B8D;fontColor=#143642;" parent="1" vertex="1">
          <mxGeometry x="94.5" y="153" width="767" height="178" as="geometry" />
        </mxCell>
        <mxCell id="hoexG68zyw0x6wc4uR14-1" value=":Animal" style="shape=umlLifeline;perimeter=lifelinePerimeter;whiteSpace=wrap;html=1;container=1;collapsible=0;recursiveResize=0;outlineConnect=0;fillColor=#FAE5C7;strokeColor=#0F8B8D;fontColor=#143642;" vertex="1" parent="1">
          <mxGeometry x="640" y="100" width="100" height="340" as="geometry" />
        </mxCell>
        <mxCell id="hoexG68zyw0x6wc4uR14-3" value="" style="html=1;points=[];perimeter=orthogonalPerimeter;fillColor=#FAE5C7;strokeColor=#0F8B8D;fontColor=#143642;" vertex="1" parent="hoexG68zyw0x6wc4uR14-1">
          <mxGeometry x="51" y="175" width="10" height="25" as="geometry" />
        </mxCell>
        <mxCell id="hoexG68zyw0x6wc4uR14-2" value="EscolherAnimal(nome)" style="html=1;verticalAlign=bottom;endArrow=block;rounded=0;exitX=1.01;exitY=0.947;exitDx=0;exitDy=0;exitPerimeter=0;entryX=-0.066;entryY=-0.002;entryDx=0;entryDy=0;entryPerimeter=0;labelBackgroundColor=#DAD2D8;strokeColor=#A8201A;fontColor=#143642;" edge="1" parent="1" source="_muVhDr60phgIgJsRJF9-10" target="hoexG68zyw0x6wc4uR14-3">
          <mxGeometry width="80" relative="1" as="geometry">
            <mxPoint x="220" y="270" as="sourcePoint" />
            <mxPoint x="300" y="270" as="targetPoint" />
            <Array as="points" />
          </mxGeometry>
        </mxCell>
        <mxCell id="hoexG68zyw0x6wc4uR14-5" value="RegistraOS" style="html=1;verticalAlign=bottom;endArrow=block;rounded=0;exitX=1.052;exitY=-0.014;exitDx=0;exitDy=0;exitPerimeter=0;labelBackgroundColor=#DAD2D8;strokeColor=#A8201A;fontColor=#143642;" edge="1" parent="1" source="hoexG68zyw0x6wc4uR14-3" target="6cp8o_F83PpAeZEBxeit-3">
          <mxGeometry width="80" relative="1" as="geometry">
            <mxPoint x="740" y="280" as="sourcePoint" />
            <mxPoint x="820" y="280" as="targetPoint" />
          </mxGeometry>
        </mxCell>
        <mxCell id="hoexG68zyw0x6wc4uR14-8" value="retorna CodigoDaOS()" style="html=1;verticalAlign=bottom;endArrow=open;dashed=1;endSize=8;rounded=0;labelBackgroundColor=#DAD2D8;strokeColor=#A8201A;fontColor=#143642;" edge="1" parent="1" source="6cp8o_F83PpAeZEBxeit-3" target="_muVhDr60phgIgJsRJF9-2">
          <mxGeometry relative="1" as="geometry">
            <mxPoint x="910" y="309.5" as="sourcePoint" />
            <mxPoint x="830" y="309.5" as="targetPoint" />
            <Array as="points">
              <mxPoint x="770" y="310" />
            </Array>
          </mxGeometry>
        </mxCell>
        <mxCell id="hoexG68zyw0x6wc4uR14-12" value="" style="html=1;points=[];perimeter=orthogonalPerimeter;fillColor=#FAE5C7;strokeColor=#0F8B8D;fontColor=#143642;" vertex="1" parent="1">
          <mxGeometry x="70" y="360" width="10" height="40" as="geometry" />
        </mxCell>
        <mxCell id="hoexG68zyw0x6wc4uR14-13" value="ItemOS()" style="html=1;verticalAlign=bottom;endArrow=block;rounded=0;entryX=-0.053;entryY=-0.003;entryDx=0;entryDy=0;entryPerimeter=0;exitX=1.14;exitY=0.008;exitDx=0;exitDy=0;exitPerimeter=0;labelBackgroundColor=#DAD2D8;strokeColor=#A8201A;fontColor=#143642;" edge="1" parent="1" source="hoexG68zyw0x6wc4uR14-12" target="hoexG68zyw0x6wc4uR14-14">
          <mxGeometry width="80" relative="1" as="geometry">
            <mxPoint x="80" y="360" as="sourcePoint" />
            <mxPoint x="160" y="360" as="targetPoint" />
          </mxGeometry>
        </mxCell>
        <mxCell id="hoexG68zyw0x6wc4uR14-16" value="RegistraItemOS()" style="html=1;verticalAlign=bottom;endArrow=block;rounded=0;exitX=0.95;exitY=0;exitDx=0;exitDy=0;exitPerimeter=0;entryX=-0.067;entryY=0;entryDx=0;entryDy=0;entryPerimeter=0;labelBackgroundColor=#DAD2D8;strokeColor=#A8201A;fontColor=#143642;" edge="1" parent="1" source="hoexG68zyw0x6wc4uR14-14" target="hoexG68zyw0x6wc4uR14-15">
          <mxGeometry width="80" relative="1" as="geometry">
            <mxPoint x="350" y="350" as="sourcePoint" />
            <mxPoint x="430" y="350" as="targetPoint" />
            <Array as="points">
              <mxPoint x="350" y="360" />
            </Array>
          </mxGeometry>
        </mxCell>
        <mxCell id="hoexG68zyw0x6wc4uR14-17" value="RegistraItemDaOS()" style="html=1;verticalAlign=bottom;endArrow=block;rounded=0;exitX=1.091;exitY=0.018;exitDx=0;exitDy=0;exitPerimeter=0;entryX=-0.221;entryY=0.02;entryDx=0;entryDy=0;entryPerimeter=0;labelBackgroundColor=#DAD2D8;strokeColor=#A8201A;fontColor=#143642;" edge="1" parent="1" source="hoexG68zyw0x6wc4uR14-15" target="hoexG68zyw0x6wc4uR14-18">
          <mxGeometry width="80" relative="1" as="geometry">
            <mxPoint x="420" y="400" as="sourcePoint" />
            <mxPoint x="500" y="400" as="targetPoint" />
          </mxGeometry>
        </mxCell>
        <mxCell id="hoexG68zyw0x6wc4uR14-18" value="" style="html=1;points=[];perimeter=orthogonalPerimeter;fillColor=#FAE5C7;strokeColor=#0F8B8D;fontColor=#143642;" vertex="1" parent="1">
          <mxGeometry x="840" y="359" width="10" height="51" as="geometry" />
        </mxCell>
        <mxCell id="hoexG68zyw0x6wc4uR14-19" value="retorna CodigoDaOS()" style="html=1;verticalAlign=bottom;endArrow=open;dashed=1;endSize=8;rounded=0;exitX=0.12;exitY=0.996;exitDx=0;exitDy=0;exitPerimeter=0;labelBackgroundColor=#DAD2D8;strokeColor=#A8201A;fontColor=#143642;" edge="1" parent="1" source="hoexG68zyw0x6wc4uR14-18" target="_muVhDr60phgIgJsRJF9-2">
          <mxGeometry relative="1" as="geometry">
            <mxPoint x="830" y="398.63" as="sourcePoint" />
            <mxPoint x="750" y="398.63" as="targetPoint" />
            <Array as="points">
              <mxPoint x="260" y="410" />
            </Array>
          </mxGeometry>
        </mxCell>
      </root>
    </mxGraphModel>
  </diagram>
</mxfile>
